<svg width="61" height="61" viewBox="0 0 61 61" fill="none" xmlns="http://www.w3.org/2000/svg">
<g clip-path="url(#clip0_2211_313237)">
<path d="M50.8333 24.5695C50.8333 18.0188 45.8548 12.7084 39.7135 12.7084C36.6016 12.7084 33.7882 14.0719 31.7718 16.2695L28.8381 27.8273H34.7035L31.7708 48.2917L47.6562 33.0417C49.7174 30.8887 50.8333 27.8898 50.8333 24.5695Z" fill="#CCF1D6"/>
<path d="M15.8854 33.0417L31.7708 48.2917L34.7035 27.8273H28.8381L31.7718 16.2695C29.7535 14.0719 26.9401 12.7084 23.8281 12.7084C17.6868 12.7084 12.7083 18.0188 12.7083 24.5695C12.7083 27.8898 13.8243 30.8887 15.8854 33.0417Z" fill="#CCF1D6"/>
<path d="M48.0085 16.5439H47.0554V17.497V24.4635H40.9844V10.9823L50.5156 1.35475L60.0469 10.9823V24.4635H54.2038V17.497V16.5439H53.2507H48.0085Z" stroke="#262626" stroke-width="1.90625"/>
<path d="M10.1287 30.8171V30.8171C5.12545 33.0627 1.90635 38.036 1.90635 43.52L1.90635 61.6355" stroke="#262626" stroke-width="1.90625"/>
<mask id="path-5-inside-1_2211_313237" fill="white">
<path fill-rule="evenodd" clip-rule="evenodd" d="M17.4517 23.7183C15.5137 21.8835 11.125 19.7461 8.33101 19.7461C4.27581 19.7461 1.90625 22.2244 1.90625 25.2816C1.90625 28.3388 4.65972 30.8172 8.33101 30.8172C11.125 30.8172 15.5136 28.6798 17.4516 26.845C16.9349 26.5186 16.5914 25.9404 16.5914 25.2817C16.5914 24.6229 16.9349 24.0447 17.4517 23.7183Z"/>
</mask>
<path d="M17.4517 23.7183L18.4697 25.3299L20.5431 24.0201L18.7622 22.334L17.4517 23.7183ZM17.4516 26.845L18.7622 28.2293L20.543 26.5433L18.4697 25.2335L17.4516 26.845ZM8.33101 21.6523C9.33149 21.6523 10.8367 22.0619 12.4268 22.781C13.9966 23.4909 15.3762 24.3783 16.1411 25.1025L18.7622 22.334C17.5892 21.2234 15.8054 20.1247 13.9978 19.3072C12.2106 18.499 10.1245 17.8398 8.33101 17.8398V21.6523ZM3.8125 25.2816C3.8125 24.2645 4.19701 23.4005 4.88188 22.7764C5.57253 22.147 6.69431 21.6523 8.33101 21.6523V17.8398C5.9125 17.8398 3.82191 18.5843 2.31398 19.9584C0.800274 21.3378 0 23.2416 0 25.2816H3.8125ZM8.33101 28.9109C5.46141 28.9109 3.8125 27.0514 3.8125 25.2816H0C0 29.6263 3.85802 32.7234 8.33101 32.7234V28.9109ZM16.141 25.4608C15.3761 26.185 13.9965 27.0724 12.4268 27.7823C10.8367 28.5014 9.33147 28.9109 8.33101 28.9109V32.7234C10.1245 32.7234 12.2106 32.0643 13.9978 31.256C15.8053 30.4386 17.5891 29.3399 18.7622 28.2293L16.141 25.4608ZM18.4697 25.2335C18.4789 25.2392 18.485 25.246 18.4895 25.254C18.492 25.2585 18.4943 25.2638 18.4958 25.2696C18.4974 25.2756 18.4977 25.2801 18.4977 25.2817H14.6852C14.6852 26.6185 15.3845 27.7939 16.4334 28.4566L18.4697 25.2335ZM18.4977 25.2817C18.4977 25.2832 18.4974 25.2877 18.4958 25.2938C18.4943 25.2995 18.492 25.3048 18.4895 25.3094C18.485 25.3174 18.4789 25.3241 18.4697 25.3299L16.4336 22.1067C15.3846 22.7693 14.6852 23.9448 14.6852 25.2817H18.4977Z" fill="#262626" mask="url(#path-5-inside-1_2211_313237)"/>
<mask id="path-7-inside-2_2211_313237" fill="white">
<path fill-rule="evenodd" clip-rule="evenodd" d="M19.2863 26.9127C19.0299 27.0494 18.7375 27.1269 18.4271 27.1269C17.4358 27.1269 16.628 26.3369 16.5927 25.3491C14.0429 26.1186 10.0069 28.8705 8.60985 31.3029C6.58225 34.833 7.53269 38.1349 10.1666 39.6635C12.8005 41.1921 16.3125 40.0343 18.1481 36.8384C19.5451 34.4062 19.898 29.5172 19.2863 26.9127Z"/>
</mask>
<path d="M19.2863 26.9127L21.142 26.4768L20.5754 24.0647L18.3892 25.2307L19.2863 26.9127ZM16.5927 25.3491L18.4977 25.281L18.4094 22.8097L16.0419 23.5242L16.5927 25.3491ZM8.60985 31.3029L10.2628 32.2523L8.60985 31.3029ZM10.1666 39.6635L11.1234 38.0148H11.1234L10.1666 39.6635ZM18.1481 36.8384L16.4951 35.889L16.4951 35.889L18.1481 36.8384ZM18.3892 25.2307C18.3948 25.2277 18.4015 25.225 18.409 25.2231C18.4168 25.2212 18.4232 25.2206 18.4271 25.2206V29.0331C19.0583 29.0331 19.658 28.8749 20.1833 28.5947L18.3892 25.2307ZM18.4271 25.2206C18.4345 25.2206 18.4461 25.2225 18.4578 25.2273C18.4682 25.2316 18.4753 25.2369 18.4799 25.2414C18.4844 25.2458 18.4887 25.2515 18.4921 25.259C18.496 25.2676 18.4975 25.276 18.4977 25.281L14.6876 25.4172C14.7592 27.4181 16.397 29.0331 18.4271 29.0331V25.2206ZM10.2628 32.2523C10.7652 31.3777 11.8729 30.2707 13.2872 29.2462C14.6844 28.2343 16.1385 27.4774 17.1434 27.1741L16.0419 23.5242C14.4971 23.9904 12.6583 24.9942 11.0508 26.1586C9.46042 27.3106 7.85155 28.7957 6.95686 30.3534L10.2628 32.2523ZM11.1234 38.0148C10.2531 37.5097 9.70001 36.7457 9.50383 35.8331C9.30579 34.9119 9.44187 33.6816 10.2628 32.2523L6.95686 30.3534C5.75024 32.4542 5.34774 34.64 5.77649 36.6344C6.20712 38.6375 7.44623 40.2888 9.20979 41.3122L11.1234 38.0148ZM16.4951 35.889C15.0522 38.4012 12.6284 38.8882 11.1234 38.0148L9.20979 41.3122C12.9727 43.496 17.5728 41.6675 19.8011 37.7878L16.4951 35.889ZM17.4305 27.3486C17.6725 28.3789 17.7473 30.0259 17.5738 31.7493C17.3982 33.4944 16.9979 35.0137 16.4951 35.889L19.8011 37.7878C20.6954 36.2309 21.17 34.0896 21.3671 32.1311C21.5665 30.1507 21.5118 28.051 21.142 26.4768L17.4305 27.3486Z" fill="#262626" mask="url(#path-7-inside-2_2211_313237)"/>
<mask id="path-9-inside-3_2211_313237" fill="white">
<path fill-rule="evenodd" clip-rule="evenodd" d="M19.4027 26.8451C21.3407 28.6799 25.7294 30.8172 28.5233 30.8172C32.5785 30.8172 34.9481 28.3388 34.9481 25.2816C34.9481 22.2244 32.1946 19.7461 28.5233 19.7461C25.7293 19.7461 21.3406 21.8835 19.4026 23.7183C19.9194 24.0447 20.2629 24.6229 20.2629 25.2817C20.2629 25.9405 19.9194 26.5186 19.4027 26.8451Z"/>
</mask>
<path d="M19.4027 26.8451L18.3846 25.2335L16.3113 26.5433L18.0921 28.2293L19.4027 26.8451ZM28.5233 19.7461V21.6523V19.7461ZM19.4026 23.7183L18.0921 22.334L16.3112 24.0201L18.3846 25.3299L19.4026 23.7183ZM28.5233 28.9109C27.5228 28.9109 26.0176 28.5014 24.4275 27.7823C22.8578 27.0724 21.4782 26.185 20.7133 25.4608L18.0921 28.2293C19.2652 29.3399 21.049 30.4386 22.8565 31.2561C24.6437 32.0643 26.7298 32.7234 28.5233 32.7234V28.9109ZM33.0418 25.2816C33.0418 26.2988 32.6573 27.1628 31.9724 27.7869C31.2818 28.4162 30.16 28.9109 28.5233 28.9109V32.7234C30.9418 32.7234 33.0324 31.979 34.5403 30.6048C36.054 29.2255 36.8543 27.3216 36.8543 25.2816H33.0418ZM28.5233 21.6523C31.3929 21.6523 33.0418 23.5119 33.0418 25.2816H36.8543C36.8543 20.937 32.9963 17.8398 28.5233 17.8398V21.6523ZM20.7132 25.1025C21.4781 24.3783 22.8577 23.4909 24.4275 22.781C26.0176 22.0619 27.5228 21.6523 28.5233 21.6523V17.8398C26.7298 17.8398 24.6437 18.499 22.8565 19.3072C21.0489 20.1247 19.2651 21.2234 18.0921 22.334L20.7132 25.1025ZM18.3846 25.3299C18.3754 25.3241 18.3693 25.3174 18.3648 25.3094C18.3623 25.3049 18.3601 25.2996 18.3585 25.2938C18.3569 25.2877 18.3566 25.2833 18.3566 25.2817H22.1691C22.1691 23.9448 21.4697 22.7693 20.4207 22.1067L18.3846 25.3299ZM18.3566 25.2817C18.3566 25.2801 18.3569 25.2756 18.3585 25.2696C18.3601 25.2638 18.3623 25.2585 18.3648 25.254C18.3693 25.246 18.3754 25.2392 18.3846 25.2335L20.4209 28.4566C21.4698 27.7939 22.1691 26.6185 22.1691 25.2817H18.3566Z" fill="#262626" mask="url(#path-9-inside-3_2211_313237)"/>
<mask id="path-11-inside-4_2211_313237" fill="white">
<path fill-rule="evenodd" clip-rule="evenodd" d="M20.2614 25.2144C22.8112 24.4448 26.8471 21.693 28.2441 19.2607C30.2717 15.7306 29.3213 12.4286 26.6874 10.9C24.0534 9.37144 20.5415 10.5292 18.7058 13.7252C17.3089 16.1573 16.956 21.0463 17.5677 23.6508C17.8241 23.514 18.1165 23.4366 18.427 23.4366C19.4184 23.4366 20.2262 24.2265 20.2614 25.2144Z"/>
</mask>
<path d="M28.2441 19.2607L29.8971 20.2101L28.2441 19.2607ZM20.2614 25.2144L18.3564 25.2824L18.4446 27.7539L20.8122 27.0393L20.2614 25.2144ZM26.6874 10.9L27.6442 9.25132V9.25132L26.6874 10.9ZM18.7058 13.7252L17.0529 12.7757H17.0529L18.7058 13.7252ZM17.5677 23.6508L15.712 24.0867L16.2786 26.499L18.4649 25.3327L17.5677 23.6508ZM26.5911 18.3113C26.0888 19.1859 24.9812 20.2928 23.5668 21.3173C22.1697 22.3293 20.7156 23.0861 19.7106 23.3895L20.8122 27.0393C22.357 26.5731 24.1957 25.5693 25.8033 24.4049C27.3936 23.253 29.0024 21.7678 29.8971 20.2101L26.5911 18.3113ZM25.7305 12.5488C26.6009 13.0539 27.154 13.8179 27.3502 14.7304C27.5482 15.6517 27.4121 16.8819 26.5911 18.3113L29.8971 20.2101C31.1037 18.1093 31.5062 15.9235 31.0775 13.9291C30.6469 11.926 29.4078 10.2748 27.6442 9.25132L25.7305 12.5488ZM20.3588 14.6746C21.8018 12.1624 24.2256 11.6753 25.7305 12.5488L27.6442 9.25132C23.8813 7.06753 19.2812 8.89607 17.0529 12.7757L20.3588 14.6746ZM19.4235 23.2149C19.1815 22.1846 19.1067 20.5376 19.2802 18.8143C19.4558 17.0691 19.8561 15.5498 20.3588 14.6746L17.0529 12.7757C16.1586 14.3327 15.684 16.474 15.4868 18.4325C15.2875 20.4128 15.3422 22.5125 15.712 24.0867L19.4235 23.2149ZM18.4649 25.3327C18.4593 25.3357 18.4526 25.3384 18.4451 25.3403C18.4373 25.3423 18.4309 25.3428 18.427 25.3428V21.5303C17.7957 21.5303 17.1959 21.6886 16.6705 21.9689L18.4649 25.3327ZM18.427 25.3428C18.4196 25.3428 18.408 25.341 18.3963 25.3361C18.3859 25.3318 18.3788 25.3266 18.3742 25.3221C18.3696 25.3176 18.3654 25.3119 18.362 25.3044C18.3581 25.2958 18.3566 25.2874 18.3564 25.2824L22.1665 25.1464C22.0951 23.1454 20.4572 21.5303 18.427 21.5303V25.3428Z" fill="#262626" mask="url(#path-11-inside-4_2211_313237)"/>
<mask id="path-13-inside-5_2211_313237" fill="white">
<path fill-rule="evenodd" clip-rule="evenodd" d="M19.2864 23.6507C19.8981 21.0462 19.5452 16.1572 18.1482 13.7251C16.1206 10.1949 12.8006 9.37133 10.1667 10.8999C7.53279 12.4285 6.7743 16.0647 8.60995 19.2606C10.007 21.6929 14.043 24.4448 16.5927 25.2143C16.628 24.2264 17.4358 23.4365 18.4272 23.4365C18.7376 23.4365 19.03 23.5139 19.2864 23.6507Z"/>
</mask>
<path d="M18.1482 13.7251L19.8012 12.7756V12.7756L18.1482 13.7251ZM19.2864 23.6507L18.3892 25.3326L20.5756 26.4988L21.1421 24.0865L19.2864 23.6507ZM10.1667 10.8999L9.20988 9.25121L10.1667 10.8999ZM8.60995 19.2606L10.2629 18.3112L10.2629 18.3112L8.60995 19.2606ZM16.5927 25.2143L16.0419 27.0393L18.4096 27.7538L18.4978 25.2823L16.5927 25.2143ZM16.4952 14.6745C16.998 15.5497 17.3982 17.069 17.5739 18.8141C17.7473 20.5374 17.6726 22.1845 17.4306 23.2148L21.1421 24.0865C21.5119 22.5123 21.5666 20.4127 21.3672 18.4323C21.1701 16.4738 20.6955 14.3325 19.8012 12.7756L16.4952 14.6745ZM11.1235 12.5486C11.9937 12.0437 12.9231 11.9467 13.7992 12.2295C14.6845 12.5153 15.674 13.2448 16.4952 14.6745L19.8012 12.7756C18.5948 10.6752 16.9106 9.22777 14.9705 8.60142C13.0212 7.97208 10.9737 8.22758 9.20988 9.25121L11.1235 12.5486ZM10.2629 18.3112C8.81846 15.7963 9.60992 13.4271 11.1235 12.5486L9.20988 9.25121C5.45565 11.43 4.73014 16.333 6.95695 20.21L10.2629 18.3112ZM17.1435 23.3894C16.1385 23.0861 14.6844 22.3292 13.2873 21.3172C11.8729 20.2927 10.7653 19.1858 10.2629 18.3112L6.95695 20.21C7.85164 21.7677 9.46049 23.2529 11.0508 24.4048C12.6584 25.5692 14.4972 26.573 16.0419 27.0393L17.1435 23.3894ZM18.4978 25.2823C18.4976 25.2873 18.496 25.2957 18.4921 25.3043C18.4887 25.3118 18.4845 25.3175 18.4799 25.322C18.4753 25.3265 18.4682 25.3317 18.4578 25.336C18.4461 25.3409 18.4346 25.3427 18.4272 25.3427V21.5302C16.3969 21.5302 14.7591 23.1453 14.6877 25.1464L18.4978 25.2823ZM18.4272 25.3427C18.4232 25.3427 18.4168 25.3421 18.4091 25.3402C18.4016 25.3383 18.3948 25.3356 18.3892 25.3326L20.1835 21.9687C19.6581 21.6885 19.0584 21.5302 18.4272 21.5302V25.3427Z" fill="#262626" mask="url(#path-13-inside-5_2211_313237)"/>
<path d="M19.3802 45.044C19.3802 43.4435 20.1933 41.087 21.2894 39.0752C21.8294 38.0843 22.408 37.2332 22.9348 36.645C23.199 36.3499 23.4287 36.1452 23.6126 36.021C23.7298 35.9419 23.8001 35.9144 23.8281 35.9052C23.8562 35.9144 23.9265 35.9419 24.0437 36.021C24.2276 36.1452 24.4573 36.3499 24.7215 36.645C25.2483 37.2332 25.8269 38.0843 26.3668 39.0752C27.463 41.087 28.2761 43.4435 28.2761 45.044C28.2761 48.3378 26.1471 50.5156 23.8281 50.5156C22.6005 50.5156 21.5124 50.0335 20.7213 49.1438C19.9261 48.2494 19.3802 46.8823 19.3802 45.044Z" stroke="#262626" stroke-width="1.90625"/>
</g>
<defs>
<clipPath id="clip0_2211_313237">
<rect width="61" height="61" fill="white"/>
</clipPath>
</defs>
</svg>