<svg width="61" height="61" viewBox="0 0 61 61" fill="none" xmlns="http://www.w3.org/2000/svg">
<g clip-path="url(#clip0_2211_313212)">
<path d="M47.6562 25.2049C47.6562 19.356 43.1756 14.6146 37.6484 14.6146C34.8477 14.6146 32.3156 15.8321 30.5009 17.7942C28.6844 15.8321 26.1523 14.6146 23.3516 14.6146C17.8244 14.6146 13.3438 19.356 13.3438 25.2049C13.3438 28.1694 14.4949 30.8494 16.3499 32.7718L16.2031 32.7694L30.5 46.3854L44.7969 32.7694L44.6501 32.7718C46.5051 30.8494 47.6562 28.1694 47.6562 25.2049Z" fill="#FFECCC"/>
<path d="M19.3802 40.7038C19.3802 45.8161 15.2519 49.9545 10.1667 49.9545C5.08144 49.9545 0.953125 45.8161 0.953125 40.7038C0.953125 35.5915 5.08144 31.4531 10.1667 31.4531C15.2519 31.4531 19.3802 35.5915 19.3802 40.7038Z" stroke="#262626" stroke-width="1.90625"/>
<path d="M17.7916 61V61C17.7916 56.7888 14.3778 53.3471 10.1666 53.3471V53.3471C5.95546 53.3471 2.54163 56.7888 2.54163 61V61" stroke="#262626" stroke-width="1.90625"/>
<mask id="path-4-inside-1_2211_313212" fill="white">
<ellipse cx="7.62508" cy="40.3849" rx="1.27083" ry="1.27548"/>
</mask>
<ellipse cx="7.62508" cy="40.3849" rx="1.27083" ry="1.27548" fill="#262626"/>
<path d="M6.98966 40.3849C6.98966 40.0431 7.2676 39.7541 7.62508 39.7541V43.5666C9.38628 43.5666 10.8022 42.1356 10.8022 40.3849H6.98966ZM7.62508 39.7541C7.98256 39.7541 8.2605 40.0431 8.2605 40.3849H4.448C4.448 42.1356 5.86388 43.5666 7.62508 43.5666V39.7541ZM8.2605 40.3849C8.2605 40.7267 7.98256 41.0157 7.62508 41.0157V37.2032C5.86388 37.2032 4.448 38.6343 4.448 40.3849H8.2605ZM7.62508 41.0157C7.2676 41.0157 6.98966 40.7267 6.98966 40.3849H10.8022C10.8022 38.6343 9.38628 37.2032 7.62508 37.2032V41.0157Z" fill="#262626" mask="url(#path-4-inside-1_2211_313212)"/>
<mask id="path-6-inside-2_2211_313212" fill="white">
<ellipse cx="12.7083" cy="40.3849" rx="1.27083" ry="1.27548"/>
</mask>
<ellipse cx="12.7083" cy="40.3849" rx="1.27083" ry="1.27548" fill="#262626"/>
<path d="M12.0729 40.3849C12.0729 40.0431 12.3509 39.7541 12.7083 39.7541V43.5666C14.4695 43.5666 15.8854 42.1356 15.8854 40.3849H12.0729ZM12.7083 39.7541C13.0658 39.7541 13.3438 40.0431 13.3438 40.3849H9.53125C9.53125 42.1356 10.9471 43.5666 12.7083 43.5666V39.7541ZM13.3438 40.3849C13.3438 40.7267 13.0658 41.0157 12.7083 41.0157V37.2032C10.9471 37.2032 9.53125 38.6343 9.53125 40.3849H13.3438ZM12.7083 41.0157C12.3509 41.0157 12.0729 40.7267 12.0729 40.3849H15.8854C15.8854 38.6343 14.4695 37.2032 12.7083 37.2032V41.0157Z" fill="#262626" mask="url(#path-6-inside-2_2211_313212)"/>
<path d="M59.7291 35.5834C58.0176 28.7624 51.981 23.7224 44.7969 23.7224C37.6127 23.7224 31.5761 28.7624 29.8646 35.5834" stroke="#262626" stroke-width="1.90625"/>
<path d="M54.1304 10.3785C54.1304 15.5775 49.8837 19.8038 44.6309 19.8038C39.3781 19.8038 35.1314 15.5775 35.1314 10.3785C35.1314 5.17937 39.3781 0.953125 44.6309 0.953125C49.8837 0.953125 54.1304 5.17937 54.1304 10.3785Z" stroke="#262626" stroke-width="1.90625"/>
</g>
<defs>
<clipPath id="clip0_2211_313212">
<rect width="61" height="61" fill="white"/>
</clipPath>
</defs>
</svg>