<svg width="61" height="61" viewBox="0 0 61 61" fill="none" xmlns="http://www.w3.org/2000/svg">
<g clip-path="url(#clip0_2211_313230)">
<path fill-rule="evenodd" clip-rule="evenodd" d="M34.2066 12.0729L36.0416 17.5758C36.2996 17.6738 36.5538 17.7793 36.804 17.892L41.9937 15.2984L46.337 19.6417L43.7434 24.8313C43.8561 25.0816 43.9616 25.3358 44.0595 25.5937L49.5625 27.4288V33.5711L44.0589 35.4077C43.9609 35.6657 43.8554 35.9199 43.7427 36.1701L46.337 41.3582L41.9937 45.7015L36.8056 43.1073C36.5553 43.22 36.3011 43.3255 36.0432 43.4235L34.2066 48.927H28.0642L26.2291 43.4241C25.9712 43.3261 25.717 43.2207 25.4667 43.108L20.2771 45.7015L15.9338 41.3582L18.5274 36.1686C18.4147 35.9183 18.3092 35.6641 18.2113 35.4062L12.7083 33.5711V27.4288L18.2107 25.5952C18.3088 25.3368 18.4145 25.0821 18.5274 24.8313L15.9338 19.6417L20.2771 15.2984L25.4667 17.892C25.7175 17.779 25.9722 17.6734 26.2307 17.5752L28.0642 12.0729H34.2066Z" fill="#CCF1D6"/>
<rect x="31.4531" y="6.0365" width="28.5937" height="20.9687" rx="1.58854" stroke="#262626" stroke-width="1.90625"/>
<path d="M50.8334 6.35421V3.27087C50.8334 2.1663 49.938 1.27087 48.8334 1.27087H42.6667C41.5622 1.27087 40.6667 2.1663 40.6667 3.27087V6.35421" stroke="#262626" stroke-width="1.90625"/>
<path d="M40.6667 16.5209H50.8334" stroke="#262626" stroke-width="1.90625"/>
<path d="M45.7499 11.4375L45.7499 21.6042" stroke="#262626" stroke-width="1.90625"/>
<circle cx="12.8672" cy="22.2395" r="9.21354" stroke="#262626" stroke-width="1.90625"/>
<path d="M24.1458 47.6562V47.6562C24.1458 41.3395 19.0251 36.2188 12.7083 36.2188V36.2188C6.39156 36.2188 1.27081 41.3395 1.27081 47.6562V61" stroke="#262626" stroke-width="1.90625"/>
<rect x="9.21356" y="50.5156" width="17.1562" height="9.53125" rx="4.13021" stroke="#262626" stroke-width="1.90625"/>
<line x1="18.7081" y1="37.7515" x2="14.8956" y2="51.0952" stroke="#262626" stroke-width="1.90625"/>
<path d="M13.736 50.5157L15.96 60.0469" stroke="#262626" stroke-width="1.90625"/>
<path d="M19.4548 50.5157L21.6788 60.0469" stroke="#262626" stroke-width="1.90625"/>
</g>
<defs>
<clipPath id="clip0_2211_313230">
<rect width="61" height="61" fill="white"/>
</clipPath>
</defs>
</svg>