<svg width="61" height="61" viewBox="0 0 61 61" fill="none" xmlns="http://www.w3.org/2000/svg">
<g clip-path="url(#clip0_2211_313201)">
<path d="M47.0208 25.6285L32.0885 10.8021L17.1562 25.6285V46.3854H47.0208V25.6285Z" fill="#CCF1D6"/>
<circle cx="51.151" cy="9.84896" r="8.89583" stroke="#262626" stroke-width="1.90625"/>
<path d="M57.8229 29.8646V29.8646C57.8229 26.0043 54.6936 22.875 50.8333 22.875V22.875C46.9731 22.875 43.8438 26.0043 43.8438 29.8646V29.8646" stroke="#262626" stroke-width="1.90625"/>
<circle cx="48.6889" cy="9.54118" r="1.23112" fill="#262626"/>
<circle cx="53.6133" cy="9.54118" r="1.23112" fill="#262626"/>
<path d="M14.1796 46.2264C16.4235 46.2264 18.2395 48.0416 18.2395 50.2772C18.2395 52.5128 16.4235 54.328 14.1796 54.328C11.9358 54.328 10.1198 52.5128 10.1198 50.2772C10.1198 48.0416 11.9358 46.2264 14.1796 46.2264Z" stroke="#262626" stroke-width="1.90625"/>
<path d="M27.0703 46.2264C29.3141 46.2264 31.1301 48.0416 31.1301 50.2772C31.1301 52.5128 29.3141 54.328 27.0703 54.328C24.8264 54.328 23.0104 52.5128 23.0104 50.2772C23.0104 48.0416 24.8264 46.2264 27.0703 46.2264Z" stroke="#262626" stroke-width="1.90625"/>
<path d="M9.01839 31.9308H9.01861L20.0939 31.9283L21.0467 31.928L21.0468 30.9752L21.0476 21.9219H23.4896C28.8304 21.9219 33.2396 25.8997 33.9072 31.0455L33.9948 35.2752C33.9896 39.4803 30.5724 42.8906 26.3542 42.8906H14.8959C10.6745 42.8906 7.25531 39.4752 7.25531 35.2656V31.9308H9.01839Z" stroke="#262626" stroke-width="1.90625"/>
<path d="M7.20463 33.7556L7.18802 30.6004C7.17329 27.8035 4.90175 25.5439 2.10475 25.5439L-7.58297e-06 25.5439" stroke="#262626" stroke-width="1.90625"/>
</g>
<defs>
<clipPath id="clip0_2211_313201">
<rect width="61" height="61" fill="white"/>
</clipPath>
</defs>
</svg>