<svg width="61" height="61" viewBox="0 0 61 61" fill="none" xmlns="http://www.w3.org/2000/svg">
<g clip-path="url(#clip0_2211_313218)">
<path fill-rule="evenodd" clip-rule="evenodd" d="M41.3347 9.56695C38.893 9.3168 36.3618 9.49923 33.8454 10.1735C22.8736 13.1134 16.3354 24.29 19.2418 35.1371C22.1483 45.9843 33.3989 52.3944 44.3707 49.4545C46.8872 48.7802 49.1705 47.6726 51.1601 46.235C42.9558 45.3945 35.7605 39.6703 33.5207 31.311C31.2808 22.9519 34.65 14.397 41.3347 9.56695Z" fill="#FFECCC"/>
<path d="M36.2188 61V46.2734C36.2188 45.7212 35.7711 45.2734 35.2188 45.2734H1.63544C1.08315 45.2734 0.635437 45.7212 0.635437 46.2734V61" stroke="#262626" stroke-width="1.90625"/>
<path d="M32.9839 45.2735V36.0417C32.9839 34.3848 31.6407 33.0417 29.9839 33.0417H6.87024C5.21339 33.0417 3.87024 34.3848 3.87024 36.0417V45.2735" stroke="#262626" stroke-width="1.90625"/>
<path d="M16.7567 45.4166V44.7954C16.7567 42.1009 14.5724 39.9166 11.8779 39.9166V39.9166C9.18339 39.9166 6.99908 42.1009 6.99908 44.7954V45.4166" stroke="#262626" stroke-width="1.90625"/>
<path d="M29.9081 45.4166V44.7954C29.9081 42.1009 27.7238 39.9166 25.0294 39.9166V39.9166C22.3349 39.9166 20.1506 42.1009 20.1506 44.7954V45.4166" stroke="#262626" stroke-width="1.90625"/>
<path d="M0.635437 55.7578H36.2188" stroke="#262626" stroke-width="1.90625"/>
<mask id="path-7-inside-1_2211_313218" fill="white">
<rect x="38.125" width="22.875" height="30.5" rx="0.635417"/>
</mask>
<rect x="38.125" width="22.875" height="30.5" rx="0.635417" stroke="#262626" stroke-width="3.8125" mask="url(#path-7-inside-1_2211_313218)"/>
<line x1="38.125" y1="14.2969" x2="59.9107" y2="14.2969" stroke="#262626" stroke-width="1.90625"/>
<line x1="49.971" y1="1.08929" x2="49.971" y2="30.5" stroke="#262626" stroke-width="1.90625"/>
<line x1="57.3168" y1="10.4776" x2="53.5043" y2="14.2901" stroke="#262626" stroke-width="1.90625"/>
<line x1="56.7722" y1="5.03108" x2="52.9597" y2="8.84358" stroke="#262626" stroke-width="1.90625"/>
<line x1="46.424" y1="10.4776" x2="42.6115" y2="14.2901" stroke="#262626" stroke-width="1.90625"/>
<line x1="46.424" y1="5.03108" x2="42.6115" y2="8.84358" stroke="#262626" stroke-width="1.90625"/>
</g>
<defs>
<clipPath id="clip0_2211_313218">
<rect width="61" height="61" fill="white"/>
</clipPath>
</defs>
</svg>