<svg width="61" height="61" viewBox="0 0 61 61" fill="none" xmlns="http://www.w3.org/2000/svg">
<g clip-path="url(#clip0_2211_313207)">
<rect x="14.6146" y="13.9792" width="33.0417" height="16.5208" fill="#CCE2F0"/>
<rect x="14.6146" y="30.5" width="33.0417" height="16.5208" fill="#CCE2F0"/>
<path d="M18.6389 0.953125C19.3992 0.953125 20.0156 1.56951 20.0156 2.32986V25.6285C20.0156 26.3888 19.3992 27.0052 18.6389 27.0052H2.32986C1.56951 27.0052 0.953125 26.3888 0.953125 25.6285V2.32986C0.953125 1.56951 1.56951 0.953125 2.32986 0.953125H18.6389Z" stroke="#262626" stroke-width="1.90625"/>
<path fill-rule="evenodd" clip-rule="evenodd" d="M5.61279 19.9097C6.13919 19.9097 6.56592 20.3364 6.56592 20.8628C6.56592 21.3892 6.13919 21.8159 5.61279 21.8159C5.0864 21.8159 4.65967 21.3892 4.65967 20.8628C4.65967 20.3364 5.0864 19.9097 5.61279 19.9097Z" fill="#262626" stroke="#262626" stroke-width="0.635417"/>
<path fill-rule="evenodd" clip-rule="evenodd" d="M10.2725 19.9097C10.7989 19.9097 11.2256 20.3364 11.2256 20.8628C11.2256 21.3892 10.7989 21.8159 10.2725 21.8159C9.74613 21.8159 9.3194 21.3892 9.3194 20.8628C9.3194 20.3364 9.74613 19.9097 10.2725 19.9097Z" fill="#262626" stroke="#262626" stroke-width="0.635417"/>
<path fill-rule="evenodd" clip-rule="evenodd" d="M14.9323 19.9097C15.4587 19.9097 15.8854 20.3364 15.8854 20.8628C15.8854 21.3892 15.4587 21.8159 14.9323 21.8159C14.4059 21.8159 13.9792 21.3892 13.9792 20.8628C13.9792 20.3364 14.4059 19.9097 14.9323 19.9097Z" fill="#262626" stroke="#262626" stroke-width="0.635417"/>
<path fill-rule="evenodd" clip-rule="evenodd" d="M5.61279 15.25C6.13919 15.25 6.56592 15.6767 6.56592 16.2031C6.56592 16.7295 6.13919 17.1562 5.61279 17.1562C5.0864 17.1562 4.65967 16.7295 4.65967 16.2031C4.65967 15.6767 5.0864 15.25 5.61279 15.25Z" fill="#262626" stroke="#262626" stroke-width="0.635417"/>
<path fill-rule="evenodd" clip-rule="evenodd" d="M10.2725 15.1441C10.7989 15.1441 11.2256 15.5708 11.2256 16.0972C11.2256 16.6236 10.7989 17.0503 10.2725 17.0503C9.74613 17.0503 9.3194 16.6236 9.3194 16.0972C9.3194 15.5708 9.74613 15.1441 10.2725 15.1441Z" fill="#262626" stroke="#262626" stroke-width="0.635417"/>
<path fill-rule="evenodd" clip-rule="evenodd" d="M14.9323 15.1441C15.4587 15.1441 15.8854 15.5708 15.8854 16.0972C15.8854 16.6236 15.4587 17.0503 14.9323 17.0503C14.4059 17.0503 13.9792 16.6236 13.9792 16.0972C13.9792 15.5708 14.4059 15.1441 14.9323 15.1441Z" fill="#262626" stroke="#262626" stroke-width="0.635417"/>
<path fill-rule="evenodd" clip-rule="evenodd" d="M5.61285 10.4844C6.13925 10.4844 6.56598 10.9111 6.56598 11.4375C6.56598 11.9639 6.13925 12.3906 5.61285 12.3906C5.08646 12.3906 4.65973 11.9639 4.65973 11.4375C4.65973 10.9111 5.08646 10.4844 5.61285 10.4844Z" fill="#262626" stroke="#262626" stroke-width="0.635417"/>
<path fill-rule="evenodd" clip-rule="evenodd" d="M10.2725 10.4844C10.7989 10.4844 11.2256 10.9111 11.2256 11.4375C11.2256 11.9639 10.7989 12.3906 10.2725 12.3906C9.74613 12.3906 9.3194 11.9639 9.3194 11.4375C9.3194 10.9111 9.74613 10.4844 10.2725 10.4844Z" fill="#262626" stroke="#262626" stroke-width="0.635417"/>
<path fill-rule="evenodd" clip-rule="evenodd" d="M14.9323 10.4844C15.4587 10.4844 15.8854 10.9111 15.8854 11.4375C15.8854 11.9639 15.4587 12.3906 14.9323 12.3906C14.4059 12.3906 13.9792 11.9639 13.9792 11.4375C13.9792 10.9111 14.4059 10.4844 14.9323 10.4844Z" fill="#262626" stroke="#262626" stroke-width="0.635417"/>
<path d="M16.309 6.35417H4.65967" stroke="#262626" stroke-width="1.90625"/>
<line x1="47.4974" y1="34.9091" x2="61" y2="34.9091" stroke="#262626" stroke-width="1.90625"/>
<line x1="29.2292" y1="34.9091" x2="42.7318" y2="34.9091" stroke="#262626" stroke-width="1.90625"/>
<line x1="35.7422" y1="27.9583" x2="35.7422" y2="41.3951" stroke="#262626" stroke-width="1.90625"/>
<line y1="-0.953125" x2="13.4697" y2="-0.953125" transform="matrix(0.708833 0.705377 -0.708833 0.705377 30.3641 50.5243)" stroke="#262626" stroke-width="1.90625"/>
<line y1="-0.953125" x2="13.4697" y2="-0.953125" transform="matrix(-0.708833 0.705377 -0.708833 -0.705377 39.9118 48.8478)" stroke="#262626" stroke-width="1.90625"/>
<line x1="47.4974" y1="54.6691" x2="61" y2="54.6691" stroke="#262626" stroke-width="1.90625"/>
<path fill-rule="evenodd" clip-rule="evenodd" d="M54.2487 48.5087C54.9067 48.5087 55.4401 49.0395 55.4401 49.6943C55.4401 50.3491 54.9067 50.8799 54.2487 50.8799C53.5907 50.8799 53.0573 50.3491 53.0573 49.6943C53.0573 49.0395 53.5907 48.5087 54.2487 48.5087Z" fill="#262626" stroke="#262626" stroke-width="0.635417"/>
<path fill-rule="evenodd" clip-rule="evenodd" d="M54.2487 57.9934C54.9067 57.9934 55.4401 58.5242 55.4401 59.179C55.4401 59.8338 54.9067 60.3646 54.2487 60.3646C53.5907 60.3646 53.0573 59.8338 53.0573 59.179C53.0573 58.5242 53.5907 57.9934 54.2487 57.9934Z" fill="#262626" stroke="#262626" stroke-width="0.635417"/>
</g>
<defs>
<clipPath id="clip0_2211_313207">
<rect width="61" height="61" fill="white"/>
</clipPath>
</defs>
</svg>

