<svg width="61" height="61" viewBox="0 0 61 61" fill="none" xmlns="http://www.w3.org/2000/svg">
<g clip-path="url(#clip0_2211_313224)">
<path fill-rule="evenodd" clip-rule="evenodd" d="M19.8956 47.0209L32.6509 13.9792H41.5986L28.8629 47.0209H19.8956Z" fill="#CCF1D6"/>
<ellipse cx="19.8956" cy="21.6041" rx="6.55185" ry="6.77778" fill="#CCF1D6"/>
<ellipse cx="43.6461" cy="35.1599" rx="6.55185" ry="6.77778" fill="#CCF1D6"/>
<path d="M16.5208 16.5208H15.5677V16.9156L15.8469 17.1948L16.5208 16.5208ZM16.5208 1.27081H17.474V0.317688H16.5208V1.27081ZM27.3042 27.3042L27.9782 27.9782L28.6521 27.3042L27.9782 26.6302L27.3042 27.3042ZM17.474 16.5208V1.27081H15.5677V16.5208H17.474ZM27.9782 26.6302L17.1948 15.8469L15.8469 17.1948L26.6302 27.9782L27.9782 26.6302ZM26.6302 26.6302C24.042 29.2185 20.4691 30.8177 16.5208 30.8177V32.7239C20.9949 32.7239 25.047 30.9093 27.9782 27.9782L26.6302 26.6302ZM16.5208 30.8177C8.62487 30.8177 2.22394 24.4168 2.22394 16.5208H0.317688C0.317688 25.4696 7.57207 32.7239 16.5208 32.7239V30.8177ZM2.22394 16.5208C2.22394 8.62487 8.62487 2.22394 16.5208 2.22394V0.317688C7.57207 0.317688 0.317688 7.57207 0.317688 16.5208H2.22394ZM16.5208 2.22394C16.5208 2.22394 16.5208 2.22394 16.5208 2.22394C16.5208 2.22394 16.5208 2.22394 16.5208 2.22394V0.317688C16.5208 0.317688 16.5208 0.317688 16.5208 0.317688C16.5208 0.317688 16.5208 0.317688 16.5208 0.317688V2.22394Z" fill="#262626"/>
<path d="M16.5208 16.5208H15.5677V16.9156L15.8469 17.1948L16.5208 16.5208ZM16.5208 1.27081L16.5208 0.317688L15.5677 0.317689V1.27081H16.5208ZM27.3042 27.3042L26.6302 27.9782L27.3042 28.6521L27.9782 27.9782L27.3042 27.3042ZM31.7708 16.5458L32.7239 16.5473V16.5458H31.7708ZM31.7708 16.4958H32.7239L32.7239 16.4943L31.7708 16.4958ZM17.4739 16.5208V1.27081H15.5677V16.5208H17.4739ZM27.9782 26.6302L17.1948 15.8468L15.8469 17.1948L26.6302 27.9782L27.9782 26.6302ZM30.8177 16.5443C30.8114 20.4832 29.2134 24.0471 26.6302 26.6302L27.9782 27.9782C30.9035 25.0528 32.7168 21.011 32.7239 16.5473L30.8177 16.5443ZM30.8177 16.4958V16.5458H32.7239V16.4958H30.8177ZM16.5208 2.22394C24.409 2.22394 30.805 8.61222 30.8177 16.4974L32.7239 16.4943C32.7096 7.55773 25.4607 0.317688 16.5208 0.317688V2.22394ZM16.5208 2.22394C16.5208 2.22394 16.5208 2.22394 16.5208 2.22394V0.317688C16.5208 0.317688 16.5208 0.317688 16.5208 0.317688L16.5208 2.22394Z" fill="#262626"/>
<path d="M51.9193 34.0456L51.1866 33.4375L50.5778 34.1696L41.6754 44.8728L41.5348 45.0417L41.4825 45.2552L40.3005 50.0735L39.8362 51.9661L41.6152 51.1707L46.1134 49.1596L46.3155 49.0693L46.4572 48.899L55.3863 38.1631L55.9964 37.4296L55.2622 36.8203L51.9193 34.0456Z" stroke="#262626" stroke-width="1.90625"/>
<path d="M54.6912 29.245L54.6767 29.2596L54.6628 29.2749L54.5221 29.4301L54.5084 29.4451L54.4954 29.4608L52.4445 31.9252L51.834 32.6588L52.5684 33.2683L55.9113 36.0429L56.6437 36.6508L57.2526 35.9193L59.2768 33.4875L59.277 33.4872C60.3413 32.2076 60.2989 30.3445 59.1686 29.1888L59.1529 29.1727L59.1365 29.1574L58.993 29.0239L58.9766 29.0086L58.9595 28.9942C57.6975 27.9259 55.8423 28.0814 54.6912 29.245Z" stroke="#262626" stroke-width="1.90625"/>
<path d="M53.375 30.5H31.1354V59.7292H57.8229V35.4374" stroke="#262626" stroke-width="1.90625"/>
<path d="M35.5833 38.125H47.3336" stroke="#262626" stroke-width="1.90625"/>
<path d="M35.5833 45.75H41.3021" stroke="#262626" stroke-width="1.90625"/>
</g>
<defs>
<clipPath id="clip0_2211_313224">
<rect width="61" height="61" fill="white"/>
</clipPath>
</defs>
</svg>