<svg width="184" height="71" viewBox="0 0 184 71" fill="none" xmlns="http://www.w3.org/2000/svg">
<g clip-path="url(#clip0_2759_304358)">
<path fill-rule="evenodd" clip-rule="evenodd" d="M108.775 35.2406C108.775 26.381 101.593 19.1989 92.7337 19.1989L92.7337 24.3031L76.6921 14.8239L92.7337 5.34473L92.7337 10.4489C106.426 10.4489 117.525 21.5485 117.525 35.2406H108.775ZM75.9629 35.2406C75.9629 44.1001 83.145 51.2822 92.0046 51.2822V46.1781L108.046 55.6572L92.0046 65.1364V60.0322C78.3125 60.0322 67.2129 48.9326 67.2129 35.2406H75.9629Z" fill="#FFECCC"/>
<path d="M80.8032 20.0663C80.8032 9.94511 72.5984 1.74023 62.4771 1.74023L59.4826 1.74023C58.9423 1.74023 58.5043 2.17822 58.5043 2.7185L58.5043 23.0609C58.5043 23.6012 58.9423 24.0391 59.4826 24.0391L79.825 24.0391C80.3652 24.0391 80.8032 23.6012 80.8032 23.0609V20.0663Z" stroke="#262626" stroke-width="3"/>
<path d="M98.5669 14.6965L98.5669 19.4465C98.5669 20.8152 97.4573 21.9248 96.0886 21.9248L84.1104 21.9248" stroke="#262626" stroke-width="3"/>
<path d="M63.9257 13.7935C63.9257 16.4581 66.0858 18.6182 68.7505 18.6182C71.4151 18.6182 73.5752 16.4581 73.5752 13.7935C73.5752 11.1289 71.4151 8.96875 68.7505 8.96875C66.0858 8.96875 63.9257 11.1289 63.9257 13.7935Z" stroke="#262626" stroke-width="3"/>
<line x1="99.2959" y1="43.2188" x2="127.004" y2="43.2188" stroke="#262626" stroke-width="3"/>
<path d="M102.942 46.9062L102.942 68.7812" stroke="#262626" stroke-width="3" stroke-linecap="round"/>
<path d="M123.358 46.9062L123.358 68.7812" stroke="#262626" stroke-width="3" stroke-linecap="round"/>
<path d="M84.3481 56.75V68.0521" stroke="#262626" stroke-width="3" stroke-linecap="round"/>
<path d="M96.3794 57.1152L96.3794 67.3236" stroke="#262626" stroke-width="3" stroke-linecap="round"/>
<path d="M81.0669 41.0732V49.1149C81.0669 53.5332 84.6486 57.1149 89.0669 57.1149H97.1086" stroke="#262626" stroke-width="3" stroke-linecap="round" stroke-linejoin="round"/>
<ellipse cx="84.4521" cy="68.2436" rx="1.99653" ry="1.99653" fill="#262626"/>
<circle cx="96.5356" cy="68.2436" r="1.99653" fill="#262626"/>
</g>
<defs>
<clipPath id="clip0_2759_304358">
<rect width="70" height="70" fill="white" transform="translate(57.0044 0.240234)"/>
</clipPath>
</defs>
</svg>
