<svg width="184" height="64" viewBox="0 0 184 64" fill="none" xmlns="http://www.w3.org/2000/svg">
<g clip-path="url(#clip0_2759_304435)">
<ellipse cx="92.0042" cy="30.4277" rx="19.3333" ry="19.0312" stroke="#CCE2F0" stroke-width="12"/>
<path d="M91.3681 1.95117L80.6709 28.4666H111.307L122.004 1.95117H91.3681Z" stroke="#262626" stroke-width="3"/>
<path d="M99.9354 8.45312C102.037 8.45312 103.531 9.40504 104.444 10.883V9.0795C104.445 9.00675 104.474 8.93717 104.526 8.88558C104.578 8.834 104.648 8.8045 104.722 8.80337H106.95C107.024 8.80413 107.095 8.83346 107.147 8.88508C107.199 8.9367 107.229 9.0065 107.229 9.0795V19.0201H108.192C108.247 19.0175 108.302 19.0292 108.351 19.0538C108.4 19.0784 108.442 19.1152 108.473 19.1606C108.503 19.2059 108.521 19.2583 108.525 19.3127C108.529 19.367 108.519 19.4214 108.495 19.4706L107.812 21.1739C107.787 21.219 107.751 21.2566 107.706 21.2823C107.662 21.308 107.61 21.3208 107.559 21.3192H104.722C104.648 21.3184 104.578 21.2892 104.526 21.2379C104.474 21.1866 104.445 21.1171 104.444 21.0445V19.2453C103.531 20.7233 102.037 21.6738 99.9354 21.6738C96.6176 21.6738 93.8569 18.6945 93.8569 15.0642C93.8569 11.383 96.5911 8.45312 99.9354 8.45312ZM100.567 19.1203C102.822 19.1203 104.417 17.4432 104.417 15.0642C104.417 12.6851 102.822 11.008 100.567 11.008C98.289 11.008 96.6926 12.6851 96.6926 15.0642C96.6926 17.4432 98.289 19.1203 100.567 19.1203Z" fill="#262626"/>
<path d="M61.3379 41.6152C61.3379 40.5107 62.2333 39.6152 63.3379 39.6152H94.6712C95.7758 39.6152 96.6712 40.5107 96.6712 41.6152V47.7715C96.6712 49.4283 95.3281 50.7715 93.6712 50.7715H64.3379C62.681 50.7715 61.3379 49.4283 61.3379 47.7715V41.6152Z" stroke="#262626" stroke-width="3"/>
<path d="M63.3379 51.7715C63.3379 51.2192 63.7856 50.7715 64.3379 50.7715H93.6712C94.2235 50.7715 94.6712 51.2192 94.6712 51.7715V58.9277C94.6712 60.5846 93.3281 61.9277 91.6712 61.9277H66.3379C64.681 61.9277 63.3379 60.5846 63.3379 58.9277V51.7715Z" stroke="#262626" stroke-width="3"/>
<path d="M72.6714 37.0527C72.6714 34.8436 74.4622 33.0527 76.6714 33.0527H80.6714C82.8805 33.0527 84.6714 34.8436 84.6714 37.0527V39.6152H72.6714V37.0527Z" stroke="#262626" stroke-width="3"/>
<path d="M78.6714 48.1465L78.6714 53.3965" stroke="#262626" stroke-width="3" stroke-linecap="round"/>
</g>
<defs>
<clipPath id="clip0_2759_304435">
<rect width="64" height="63" fill="white" transform="translate(60.0044 0.240234)"/>
</clipPath>
</defs>
</svg>
