<svg width="110" height="110" viewBox="0 0 110 110" fill="none" xmlns="http://www.w3.org/2000/svg">
<g clip-path="url(#clip0_2759_304541)">
<path d="M87.0832 55.0003C87.0832 37.2812 72.719 22.917 54.9998 22.917C37.2807 22.917 22.9165 37.2812 22.9165 55.0003C22.9165 72.7195 37.2807 87.0837 54.9998 87.0837" stroke="#FFECCC" stroke-width="12" stroke-linecap="round"/>
<path d="M1.5 69.6045C1.5 69.3283 1.72386 69.1045 2 69.1045H62.1667C62.4428 69.1045 62.6667 69.3284 62.6667 69.6045V87.5212C62.6667 88.3496 61.9951 89.0212 61.1667 89.0212H3C2.17157 89.0212 1.5 88.3496 1.5 87.5212V69.6045Z" stroke="#262626" stroke-width="3"/>
<path d="M4.9375 107.001V88.584H59.2292V107.001C59.2292 107.829 58.5576 108.501 57.7292 108.501H6.4375C5.60907 108.501 4.9375 107.829 4.9375 107.001Z" stroke="#262626" stroke-width="3"/>
<path d="M23.271 61.292C23.271 59.9113 24.3903 58.792 25.771 58.792H38.396C39.7767 58.792 40.896 59.9113 40.896 61.292V69.542H23.271V61.292Z" stroke="#262626" stroke-width="3"/>
<path d="M32.0835 83.6465L32.0835 92.8131" stroke="#262626" stroke-width="3" stroke-linecap="round"/>
<path d="M108.5 11.4583C108.5 16.9582 104.042 21.4167 98.5418 21.4167C93.042 21.4167 88.5835 16.9582 88.5835 11.4583C88.5835 5.9585 93.042 1.5 98.5418 1.5C104.042 1.5 108.5 5.9585 108.5 11.4583Z" stroke="#262626" stroke-width="3"/>
<ellipse cx="2.29166" cy="2.29167" rx="2.29166" ry="2.29167" transform="matrix(1 0 0 -1 80.2085 9.16699)" stroke="#262626" stroke-width="3"/>
<path d="M76.4167 11.4583C76.4167 16.9582 71.9582 21.4167 66.4583 21.4167C60.9585 21.4167 56.5 16.9582 56.5 11.4583C56.5 5.9585 60.9585 1.5 66.4583 1.5C71.9582 1.5 76.4167 5.9585 76.4167 11.4583Z" stroke="#262626" stroke-width="3"/>
<path d="M74.8965 9.16667C77.0743 7.71868 79.6885 6.875 82.4998 6.875C85.311 6.875 87.9253 7.71868 90.103 9.16667" stroke="#262626" stroke-width="3"/>
</g>
<defs>
<clipPath id="clip0_2759_304541">
<rect width="110" height="110" fill="white"/>
</clipPath>
</defs>
</svg>
