<svg width="184" height="75" viewBox="0 0 184 75" fill="none" xmlns="http://www.w3.org/2000/svg">
<g clip-path="url(#clip0_2759_304382)">
<rect x="71.8242" y="17.3154" width="40.3598" height="40.3598" rx="20.1799" fill="#CCF1D6"/>
<rect x="94.1388" y="5.28532" width="30.6579" height="37.2552" stroke="#262626" stroke-width="2.32845"/>
<path d="M104.52 15.4307L114.062 15.4307" stroke="#262626" stroke-width="2.32845"/>
<line x1="108.983" y1="10.7188" x2="108.983" y2="20.6147" stroke="#262626" stroke-width="2.32845"/>
<line x1="108.983" y1="10.7188" x2="108.983" y2="20.6147" stroke="#262626" stroke-width="2.32845"/>
<line x1="100.736" y1="23.9131" x2="100.736" y2="27.2117" stroke="#262626" stroke-width="2.32845"/>
<line x1="117.229" y1="23.9131" x2="117.229" y2="27.2117" stroke="#262626" stroke-width="2.32845"/>
<line x1="117.229" y1="30.5098" x2="117.229" y2="33.8084" stroke="#262626" stroke-width="2.32845"/>
<line x1="108.983" y1="23.9131" x2="108.983" y2="27.2117" stroke="#262626" stroke-width="2.32845"/>
<line x1="100.736" y1="30.5098" x2="100.736" y2="33.8084" stroke="#262626" stroke-width="2.32845"/>
<line x1="108.983" y1="30.5098" x2="108.983" y2="33.8084" stroke="#262626" stroke-width="2.32845"/>
<line x1="89.6758" y1="42.5409" x2="129.259" y2="42.5409" stroke="#262626" stroke-width="2.32845"/>
<path d="M72.2124 54.9582C77.9518 54.9582 83.2772 57.8301 88.1901 63.8839C83.2772 69.9377 77.9518 72.8096 72.2124 72.8096C66.473 72.8096 61.1476 69.9377 56.2347 63.8839C61.1476 57.8301 66.473 54.9582 72.2124 54.9582Z" stroke="#262626" stroke-width="2.32845"/>
<path d="M78.3877 63.8843C78.3877 67.1003 75.6654 69.783 72.2122 69.783C68.7591 69.783 66.0368 67.1003 66.0368 63.8843C66.0368 60.6682 68.7591 57.9855 72.2122 57.9855C75.6654 57.9855 78.3877 60.6682 78.3877 63.8843Z" stroke="#262626" stroke-width="2.32845"/>
</g>
<defs>
<clipPath id="clip0_2759_304382">
<rect width="74.5105" height="74.5105" fill="white" transform="translate(54.749 0.240234)"/>
</clipPath>
</defs>
</svg>
