<svg width="184" height="80" viewBox="0 0 184 80" fill="none" xmlns="http://www.w3.org/2000/svg">
<g clip-path="url(#clip0_2759_304284)">
<path fill-rule="evenodd" clip-rule="evenodd" d="M97.9108 17.4735L92.8276 40.1786L114.308 33.8997C114.799 35.773 115.061 37.7394 115.061 39.7668C115.061 52.5008 104.738 62.8237 92.0041 62.8237C79.2702 62.8237 68.9473 52.5008 68.9473 39.7668C68.9473 27.0329 79.2702 16.71 92.0041 16.71C94.0459 16.71 96.0257 16.9753 97.9108 17.4735Z" fill="#CCF1D6"/>
<path d="M94.3867 43.4407L100.476 66.1663L61.8261 76.5225L55.7368 53.7969L80.3831 47.1929" stroke="#262626" stroke-width="2.47038"/>
<path d="M83.8175 53.5802C84.8118 57.2908 82.5506 61.166 78.7001 62.1977C74.8497 63.2294 70.9538 61.004 69.9596 57.2935C68.9654 53.5829 71.2266 49.7077 75.077 48.676C78.9274 47.6443 82.8233 49.8697 83.8175 53.5802Z" stroke="#262626" stroke-width="2.47038"/>
<path d="M94.0856 42.6085C95.1324 46.5153 92.8551 50.4889 89.0443 51.51C85.2334 52.5311 81.2745 50.2285 80.2276 46.3217C79.1808 42.4149 81.458 38.4412 85.2689 37.4201C89.0798 36.399 93.0387 38.7016 94.0856 42.6085Z" stroke="#262626" stroke-width="2.47038"/>
<circle cx="115.061" cy="16.7094" r="15.234" stroke="#262626" stroke-width="2.47038"/>
<line x1="106.826" y1="17.1213" x2="123.295" y2="17.1213" stroke="#262626" stroke-width="2.47038"/>
<line x1="114.649" y1="8.47461" x2="114.649" y2="24.9438" stroke="#262626" stroke-width="2.47038"/>
</g>
<defs>
<clipPath id="clip0_2759_304284">
<rect width="79.0521" height="79.0521" fill="white" transform="translate(52.478 0.240234)"/>
</clipPath>
</defs>
</svg>
