<svg width="80" height="80" viewBox="0 0 80 80" fill="none" xmlns="http://www.w3.org/2000/svg">
<g clip-path="url(#clip0_2759_304285)">
<path fill-rule="evenodd" clip-rule="evenodd" d="M45.9108 17.4735L40.8276 40.1786L62.3079 33.8997C62.7993 35.773 63.061 37.7394 63.061 39.7668C63.061 52.5008 52.7381 62.8237 40.0041 62.8237C27.2702 62.8237 16.9473 52.5008 16.9473 39.7668C16.9473 27.0329 27.2702 16.71 40.0041 16.71C42.0459 16.71 44.0257 16.9753 45.9108 17.4735Z" fill="#CCF1D6"/>
<path d="M42.3871 43.4407L48.4765 66.1663L9.82662 76.5225L3.7373 53.7969L28.3836 47.1929" stroke="#262626" stroke-width="2.47038"/>
<path d="M31.818 53.5802C32.8123 57.2908 30.551 61.166 26.7006 62.1977C22.8502 63.2294 18.9543 61.004 17.9601 57.2935C16.9659 53.5829 19.2271 49.7077 23.0775 48.676C26.9279 47.6443 30.8238 49.8697 31.818 53.5802Z" stroke="#262626" stroke-width="2.47038"/>
<path d="M42.086 42.6085C43.1329 46.5153 40.8556 50.4889 37.0448 51.51C33.2339 52.5311 29.2749 50.2285 28.2281 46.3217C27.1813 42.4149 29.4585 38.4412 33.2694 37.4201C37.0803 36.399 41.0392 38.7016 42.086 42.6085Z" stroke="#262626" stroke-width="2.47038"/>
<circle cx="63.061" cy="16.7094" r="15.234" stroke="#262626" stroke-width="2.47038"/>
<line x1="54.8262" y1="17.1213" x2="71.2954" y2="17.1213" stroke="#262626" stroke-width="2.47038"/>
<line x1="62.6493" y1="8.47461" x2="62.6493" y2="24.9438" stroke="#262626" stroke-width="2.47038"/>
</g>
<defs>
<clipPath id="clip0_2759_304285">
<rect width="79.0521" height="79.0521" fill="white" transform="translate(0.478027 0.240234)"/>
</clipPath>
</defs>
</svg>
