<svg width="25" height="16" viewBox="0 0 25 16" fill="none" xmlns="http://www.w3.org/2000/svg">
<path fill-rule="evenodd" clip-rule="evenodd" d="M0.186829 11.292L1.78091 7.34766H3.31257L1.72053 11.292H0.186829Z" fill="#BA3A26"/>
<path fill-rule="evenodd" clip-rule="evenodd" d="M19.8574 11.292L21.4311 7.34766H22.2661L20.6925 11.292H19.8574Z" fill="#BA3A26"/>
<path fill-rule="evenodd" clip-rule="evenodd" d="M22.9514 11.292L24.5248 7.34766H24.9683L23.3947 11.292H22.9514Z" fill="#BA3A26"/>
<path fill-rule="evenodd" clip-rule="evenodd" d="M18.41 7.34806H17.0235C17.0235 7.34806 16.928 7.34806 16.8942 7.43244L16.1269 9.78075L15.3603 7.43244C15.3265 7.34806 15.2304 7.34806 15.2304 7.34806H12.5646C12.5069 7.34806 12.4586 7.39625 12.4586 7.45358V8.25105C12.4586 7.61844 11.7853 7.34806 11.391 7.34806C10.5082 7.34806 9.91717 7.92944 9.73315 8.81332C9.72318 8.22696 9.67443 8.01686 9.51645 7.80168C9.44388 7.69626 9.33899 7.60764 9.22478 7.53435C8.98962 7.39662 8.77846 7.34806 8.32466 7.34806H7.79182C7.79182 7.34806 7.69552 7.34806 7.66154 7.43244L7.17671 8.63369V7.45358C7.17671 7.39625 7.1287 7.34806 7.07109 7.34806H5.83811C5.83811 7.34806 5.74292 7.34806 5.7083 7.43244L5.20426 8.6815C5.20426 8.6815 5.15394 8.8064 5.26899 8.8064H5.74292V11.1866C5.74292 11.2456 5.78945 11.2924 5.84882 11.2924H7.07109C7.1287 11.2924 7.17671 11.2456 7.17671 11.1866V8.8064H7.65314C7.92653 8.8064 7.98442 8.81388 8.09078 8.86345C8.15486 8.88763 8.21257 8.93656 8.24405 8.99296C8.3085 9.11426 8.32466 9.25993 8.32466 9.68945V11.1866C8.32466 11.2456 8.37211 11.2924 8.43074 11.2924H9.60223C9.60223 11.2924 9.73463 11.2924 9.78698 11.1617L10.0466 10.5202C10.3918 11.0036 10.96 11.2924 11.6662 11.2924H11.8205C11.8205 11.2924 11.9537 11.2924 12.0064 11.1617L12.4586 10.0422V11.1866C12.4586 11.2456 12.5069 11.2924 12.5646 11.2924H13.7605C13.7605 11.2924 13.8924 11.2924 13.9454 11.1617C13.9454 11.1617 14.4237 9.97451 14.4256 9.96556H14.4263C14.4447 9.86678 14.3198 9.86678 14.3198 9.86678H13.893V7.82965L15.2359 11.1617C15.2884 11.2924 15.4206 11.2924 15.4206 11.2924H16.8333C16.8333 11.2924 16.9663 11.2924 17.0187 11.1617L18.5076 7.47582C18.5591 7.34806 18.41 7.34806 18.41 7.34806ZM12.4582 9.86824H11.6549C11.3352 9.86824 11.0751 9.6094 11.0751 9.28935C11.0751 8.96986 11.3352 8.70936 11.6549 8.70936H11.8795C12.1985 8.70936 12.4582 8.96986 12.4582 9.28935V9.86824ZM11.7576 15.6851C7.45119 15.6851 3.95935 12.1942 3.95935 7.88803C3.95935 3.58143 7.45119 0.0898438 11.7576 0.0898438C16.0655 0.0898438 19.5577 3.58143 19.5577 7.88803C19.5577 12.1942 16.0655 15.6851 11.7576 15.6851Z" fill="#BA3A26"/>
</svg>