<svg width="131" height="131" viewBox="0 0 131 131" fill="none" xmlns="http://www.w3.org/2000/svg">
<g clip-path="url(#clip0_2759_304520)">
<path d="M54.6284 47.0003L88.6347 12.9941L113.952 38.311L79.9454 72.3173L94.3043 86.6762L28.9252 98.0205L40.2696 32.6414L54.6284 47.0003Z" fill="#CCF1D6"/>
<path d="M50.4384 131C50.4384 131 58.6259 78.4634 25.7249 57.299" stroke="#262626" stroke-width="3"/>
<path d="M47.4954 86.0957L27.9229 80.8512" stroke="#262626" stroke-width="3"/>
<path d="M42.1481 74.8463L42.1481 54.5833" stroke="#262626" stroke-width="3"/>
<mask id="path-5-inside-1_2759_304520" fill="white">
<path fill-rule="evenodd" clip-rule="evenodd" d="M52.3524 44.3073C52.2123 44.0449 52.0672 43.7839 51.9174 43.5243C44.6026 30.8548 28.5143 26.4493 15.983 33.6842C3.45175 40.9191 -0.777091 57.0548 6.53764 69.7243C6.68749 69.9839 6.84103 70.24 6.99814 70.4926C-0.317531 77.9959 -2.08688 89.7197 3.41085 99.2421L3.69241 99.7297C10.3198 111.209 24.998 115.142 36.477 108.514L70.5407 88.8477C82.0197 82.2203 85.9527 67.5421 79.3253 56.0631L79.0437 55.5754C73.546 46.0531 62.5083 41.7235 52.3524 44.3073Z"/>
</mask>
<path d="M52.3524 44.3073L49.7065 45.7212L50.8143 47.7942L53.0921 47.2147L52.3524 44.3073ZM6.99814 70.4926L9.14615 72.5868L10.787 70.9039L9.54555 68.908L6.99814 70.4926ZM79.3253 56.0631L81.9234 54.5631L79.3253 56.0631ZM79.0437 55.5754L76.4457 57.0754L79.0437 55.5754ZM49.3193 45.0243C49.4527 45.2554 49.5818 45.4877 49.7065 45.7212L54.9984 42.8934C54.8427 42.6021 54.6817 42.3124 54.5154 42.0243L49.3193 45.0243ZM17.483 36.2823C28.5526 29.8912 42.8174 33.7628 49.3193 45.0243L54.5154 42.0243C46.3878 27.9469 28.476 23.0073 14.483 31.0861L17.483 36.2823ZM9.13571 68.2243C2.63386 56.9628 6.41342 42.6733 17.483 36.2823L14.483 31.0861C0.49008 39.165 -4.18804 57.1469 3.93956 71.2243L9.13571 68.2243ZM9.54555 68.908C9.40578 68.6833 9.26914 68.4554 9.13571 68.2243L3.93956 71.2243C4.10584 71.5123 4.27627 71.7966 4.45072 72.0771L9.54555 68.908ZM6.00893 97.7421C1.20058 89.4138 2.74383 79.1534 9.14615 72.5868L4.85012 68.3983C-3.37889 76.8384 -5.37433 90.0257 0.812776 100.742L6.00893 97.7421ZM6.29048 98.2297L6.00893 97.7421L0.812776 100.742L1.09433 101.23L6.29048 98.2297ZM34.977 105.916C24.9329 111.715 12.0895 108.274 6.29048 98.2297L1.09433 101.23C8.55018 114.144 25.0631 118.568 37.977 111.112L34.977 105.916ZM69.0407 86.2496L34.977 105.916L37.977 111.112L72.0407 91.4458L69.0407 86.2496ZM76.7272 57.5631C82.5262 67.6072 79.0848 80.4506 69.0407 86.2496L72.0407 91.4458C84.9546 83.9899 89.3792 67.477 81.9234 54.5631L76.7272 57.5631ZM76.4457 57.0754L76.7272 57.5631L81.9234 54.5631L81.6418 54.0754L76.4457 57.0754ZM53.0921 47.2147C61.9801 44.9535 71.6373 48.7471 76.4457 57.0754L81.6418 54.0754C75.4547 43.3591 63.0366 38.4935 51.6128 41.3999L53.0921 47.2147Z" fill="#262626" mask="url(#path-5-inside-1_2759_304520)"/>
<line x1="96.8853" y1="2.12132" x2="71.7149" y2="27.2917" stroke="#262626" stroke-width="3" stroke-linecap="round"/>
<line x1="100.979" y1="18.4963" x2="75.8087" y2="43.6667" stroke="#262626" stroke-width="3" stroke-linecap="round"/>
<line x1="128.271" y1="10.3088" x2="103.101" y2="35.4792" stroke="#262626" stroke-width="3" stroke-linecap="round"/>
</g>
<defs>
<clipPath id="clip0_2759_304520">
<rect width="131" height="131" fill="white"/>
</clipPath>
</defs>
</svg>
